<svg width="36" height="40" viewBox="0 0 36 40" fill="none" xmlns="http://www.w3.org/2000/svg">
<path d="M13.0221 7.55554C12.3621 7.55554 11.729 7.81776 11.2622 8.28452C10.7955 8.75127 10.5333 9.38433 10.5333 10.0444C10.5333 10.7045 10.7955 11.3376 11.2622 11.8043C11.729 12.2711 12.3621 12.5333 13.0221 12.5333H26.9251L23.7069 15.7514C23.2536 16.2209 23.0027 16.8496 23.0084 17.5021C23.0141 18.1547 23.2758 18.779 23.7373 19.2404C24.1987 19.7019 24.823 19.9636 25.4755 19.9693C26.1281 19.975 26.7568 19.7241 27.2262 19.2707L34.6929 11.8041C35.1595 11.3373 35.4216 10.7044 35.4216 10.0444C35.4216 9.38446 35.1595 8.75152 34.6929 8.28478L27.2262 0.818117C26.9966 0.580402 26.722 0.390794 26.4184 0.260354C26.1147 0.129913 25.7881 0.0612543 25.4576 0.0583825C25.1272 0.0555108 24.7994 0.118484 24.4936 0.243628C24.1877 0.368771 23.9098 0.553579 23.6761 0.787267C23.4424 1.02096 23.2576 1.29884 23.1325 1.60472C23.0073 1.9106 22.9443 2.23833 22.9472 2.5688C22.9501 2.89928 23.0187 3.22587 23.1492 3.52952C23.2796 3.83318 23.4692 4.10781 23.7069 4.3374L26.9251 7.55554H13.0221Z" fill="url(#paint0_linear_0_294)"/>
<path d="M22.9777 32.4444C23.6378 32.4444 24.2709 32.1822 24.7376 31.7154C25.2044 31.2487 25.4666 30.6156 25.4666 29.9555C25.4666 29.2954 25.2044 28.6624 24.7376 28.1956C24.2709 27.7289 23.6378 27.4666 22.9777 27.4666H9.07478L12.2929 24.2485C12.5306 24.0189 12.7202 23.7443 12.8507 23.4406C12.9811 23.137 13.0498 22.8104 13.0527 22.4799C13.0555 22.1494 12.9925 21.8217 12.8674 21.5158C12.7423 21.21 12.5575 20.9321 12.3238 20.6984C12.0901 20.4647 11.8122 20.2799 11.5063 20.1547C11.2004 20.0296 10.8727 19.9666 10.5422 19.9695C10.2118 19.9724 9.88516 20.041 9.58151 20.1715C9.27785 20.3019 9.00322 20.4915 8.77363 20.7292L1.30696 28.1959C0.840365 28.6626 0.578247 29.2956 0.578247 29.9555C0.578247 30.6155 0.840365 31.2484 1.30696 31.7152L8.77363 39.1818C9.24304 39.6352 9.87174 39.8861 10.5243 39.8804C11.1769 39.8747 11.8011 39.613 12.2626 39.1515C12.7241 38.6901 12.9858 38.0658 12.9915 37.4132C12.9972 36.7607 12.7463 36.132 12.2929 35.6626L9.07478 32.4444H22.9777Z" fill="url(#paint1_linear_0_294)"/>
<defs>
<linearGradient id="paint0_linear_0_294" x1="6.92991" y1="59.3768" x2="58.725" y2="24.0872" gradientUnits="userSpaceOnUse">
<stop stop-color="#982DEC"/>
<stop offset="0.572917" stop-color="#DC8DF8"/>
<stop offset="0.895833" stop-color="#A9C4F3"/>
</linearGradient>
<linearGradient id="paint1_linear_0_294" x1="6.92991" y1="59.3768" x2="58.725" y2="24.0872" gradientUnits="userSpaceOnUse">
<stop stop-color="#982DEC"/>
<stop offset="0.572917" stop-color="#DC8DF8"/>
<stop offset="0.895833" stop-color="#A9C4F3"/>
</linearGradient>
</defs>
</svg>
