<svg width="50" height="50" viewBox="0 0 50 50" fill="none" xmlns="http://www.w3.org/2000/svg">
<path fill-rule="evenodd" clip-rule="evenodd" d="M31.2222 8.40741C33.9309 8.40741 36.2373 10.1393 37.0918 12.5556H18.7777C16.0273 12.5556 13.3896 13.6481 11.4448 15.593C9.49995 17.5378 8.40736 20.1755 8.40736 22.9259V32.9437C7.19388 32.5144 6.14335 31.7193 5.40045 30.6681C4.65756 29.6169 4.25885 28.3613 4.25922 27.0741V14.6296C4.25922 12.9794 4.91477 11.3967 6.08166 10.2299C7.24856 9.06296 8.8312 8.40741 10.4814 8.40741H31.2222ZM39.5185 16.7037H18.7777C17.1275 16.7037 15.5449 17.3593 14.378 18.5262C13.2111 19.693 12.5555 21.2757 12.5555 22.9259V35.3704C12.5555 37.0206 13.2111 38.6033 14.378 39.7701C15.5449 40.937 17.1275 41.5926 18.7777 41.5926H39.5185C41.1687 41.5926 42.7514 40.937 43.9183 39.7701C45.0851 38.6033 45.7407 37.0206 45.7407 35.3704V22.9259C45.7407 21.2757 45.0851 19.693 43.9183 18.5262C42.7514 17.3593 41.1687 16.7037 39.5185 16.7037ZM33.2963 29.1481C33.2963 30.2483 32.8592 31.3034 32.0813 32.0813C31.3034 32.8593 30.2483 33.2963 29.1481 33.2963C28.0479 33.2963 26.9929 32.8593 26.2149 32.0813C25.437 31.3034 25 30.2483 25 29.1481C25 28.048 25.437 26.9929 26.2149 26.215C26.9929 25.437 28.0479 25 29.1481 25C30.2483 25 31.3034 25.437 32.0813 26.215C32.8592 26.9929 33.2963 28.048 33.2963 29.1481Z" fill="url(#paint0_linear_0_310)"/>
<defs>
<linearGradient id="paint0_linear_0_310" x1="11.8209" y1="57.8395" x2="58.1832" y2="12.7123" gradientUnits="userSpaceOnUse">
<stop stop-color="#982DEC"/>
<stop offset="0.572917" stop-color="#DC8DF8"/>
<stop offset="0.895833" stop-color="#A9C4F3"/>
</linearGradient>
</defs>
</svg>
